HIERARCHY
ROOT Hips
{
  OFFSET 5.72205e-005 65.662 3.42586
  CHANNELS 6 Xposition Yposition Zposition Zrotation Xrotation Yrotation
  JOINT Chest
  {
    OFFSET 0 8.7983 -4.7612
    CHANNELS 6 Xposition Yposition Zposition Zrotation Xrotation Yrotation
    JOINT Chest2
    {
      OFFSET 0 8.0291 0.4195
      CHANNELS 6 Xposition Yposition Zposition Zrotation Xrotation Yrotation
      JOINT Chest3
      {
        OFFSET 0 9.9351 -2.2114
        CHANNELS 6 Xposition Yposition Zposition Zrotation Xrotation Yrotation
        JOINT Neck
        {
          OFFSET 0 22.3885 -0.4656
          CHANNELS 6 Xposition Yposition Zposition Zrotation Xrotation Yrotation
          JOINT Head
          {
            OFFSET -0.0001 12.643 3.4389
            CHANNELS 6 Xposition Yposition Zposition Zrotation Xrotation Yrotation
            End Site
            {
              OFFSET 0.0001 17.6655 0.5274
            }
          }
        }
        JOINT LeftCollar
        {
          OFFSET 2.2603 21.606 7.4023
          CHANNELS 6 Xposition Yposition Zposition Zrotation Xrotation Yrotation
          JOINT LeftShoulder
          {
            OFFSET 13.5163 -1.1332 -5.0146
            CHANNELS 6 Xposition Yposition Zposition Zrotation Xrotation Yrotation
            JOINT LeftElbow
            {
              OFFSET -0.0995 -28.05 -0.2431
              CHANNELS 6 Xposition Yposition Zposition Zrotation Xrotation Yrotation
              JOINT LeftWrist
              {
                OFFSET 0.0679 -23.3996 -0.1402
                CHANNELS 6 Xposition Yposition Zposition Zrotation Xrotation Yrotation
                JOINT LeftFinger1
                {
                  OFFSET 0.7932 -9.069 2.5189
                  CHANNELS 6 Xposition Yposition Zposition Zrotation Xrotation Yrotation
                  JOINT LeftFinger11
                  {
                    OFFSET -0.8272 -3.3923 0.5977
                    CHANNELS 6 Xposition Yposition Zposition Zrotation Xrotation Yrotation
                    JOINT LeftFinger12
                    {
                      OFFSET -0.5649 -2.3158 0.4082
                      CHANNELS 6 Xposition Yposition Zposition Zrotation Xrotation Yrotation
                      End Site
                      {
                        OFFSET -0.4919 -1.6479 0.2673
                      }
                    }
                  }
                }
                JOINT LeftFinger2
                {
                  OFFSET 0.9159 -9.2044 0.2193
                  CHANNELS 6 Xposition Yposition Zposition Zrotation Xrotation Yrotation
                  JOINT LeftFinger21
                  {
                    OFFSET 0.0117 -4.1944 -0.0248
                    CHANNELS 6 Xposition Yposition Zposition Zrotation Xrotation Yrotation
                    JOINT LeftFinger22
                    {
                      OFFSET 0.0071 -2.3249 -0.0142
                      CHANNELS 6 Xposition Yposition Zposition Zrotation Xrotation Yrotation
                      End Site
                      {
                        OFFSET -0.1475 -2.0882 0.0028
                      }
                    }
                  }
                }
                JOINT LeftFinger3
                {
                  OFFSET 0.6113 -8.7231 -2.0637
                  CHANNELS 6 Xposition Yposition Zposition Zrotation Xrotation Yrotation
                  JOINT LeftFinger31
                  {
                    OFFSET -0.1927 -3.8059 -0.2383
                    CHANNELS 6 Xposition Yposition Zposition Zrotation Xrotation Yrotation
                    JOINT LeftFinger32
                    {
                      OFFSET -0.1091 -2.1688 -0.1362
                      CHANNELS 6 Xposition Yposition Zposition Zrotation Xrotation Yrotation
                      End Site
                      {
                        OFFSET -0.2358 -1.9176 -0.0906
                      }
                    }
                  }
                }
                JOINT LeftFinger4
                {
                  OFFSET -0.6151 -8.0947 -3.5641
                  CHANNELS 6 Xposition Yposition Zposition Zrotation Xrotation Yrotation
                  JOINT LeftFinger41
                  {
                    OFFSET -0.4882 -2.341 -0.6462
                    CHANNELS 6 Xposition Yposition Zposition Zrotation Xrotation Yrotation
                    JOINT LeftFinger42
                    {
                      OFFSET -0.3575 -1.7167 -0.4742
                      CHANNELS 6 Xposition Yposition Zposition Zrotation Xrotation Yrotation
                      End Site
                      {
                        OFFSET -0.4187 -1.5237 -0.3496
                      }
                    }
                  }
                }
                JOINT LeftFinger0
                {
                  OFFSET -1.42 -1.8761 1.4223
                  CHANNELS 6 Xposition Yposition Zposition Zrotation Xrotation Yrotation
                  JOINT LeftFinger01
                  {
                    OFFSET -1.1471 -3.4929 2.6334
                    CHANNELS 6 Xposition Yposition Zposition Zrotation Xrotation Yrotation
                    JOINT LeftFinger02
                    {
                      OFFSET -0.823 -2.3 1.6571
                      CHANNELS 6 Xposition Yposition Zposition Zrotation Xrotation Yrotation
                      End Site
                      {
                        OFFSET -0.5822 -1.6914 1.1582
                      }
                    }
                  }
                }
              }
            }
          }
        }
        JOINT RightCollar
        {
          OFFSET -2.2603 21.606 7.4023
          CHANNELS 6 Xposition Yposition Zposition Zrotation Xrotation Yrotation
          JOINT RightShoulder
          {
            OFFSET -13.5187 -1.1334 -5.0155
            CHANNELS 6 Xposition Yposition Zposition Zrotation Xrotation Yrotation
            JOINT RightElbow
            {
              OFFSET 0.0994 -28.0499 -0.2431
              CHANNELS 6 Xposition Yposition Zposition Zrotation Xrotation Yrotation
              JOINT RightWrist
              {
                OFFSET -0.0679 -23.3996 -0.1402
                CHANNELS 6 Xposition Yposition Zposition Zrotation Xrotation Yrotation
                JOINT RightFinger1
                {
                  OFFSET -0.7932 -9.0691 2.5189
                  CHANNELS 6 Xposition Yposition Zposition Zrotation Xrotation Yrotation
                  JOINT RightFinger11
                  {
                    OFFSET 0.8272 -3.3923 0.5977
                    CHANNELS 6 Xposition Yposition Zposition Zrotation Xrotation Yrotation
                    JOINT RightFinger12
                    {
                      OFFSET 0.565 -2.3158 0.4082
                      CHANNELS 6 Xposition Yposition Zposition Zrotation Xrotation Yrotation
                      End Site
                      {
                        OFFSET 0.4919 -1.6479 0.2673
                      }
                    }
                  }
                }
                JOINT RightFinger2
                {
                  OFFSET -0.916 -9.2044 0.2193
                  CHANNELS 6 Xposition Yposition Zposition Zrotation Xrotation Yrotation
                  JOINT RightFinger21
                  {
                    OFFSET -0.0117 -4.1944 -0.0248
                    CHANNELS 6 Xposition Yposition Zposition Zrotation Xrotation Yrotation
                    JOINT RightFinger22
                    {
                      OFFSET -0.0071 -2.3249 -0.0142
                      CHANNELS 6 Xposition Yposition Zposition Zrotation Xrotation Yrotation
                      End Site
                      {
                        OFFSET 0.1475 -2.0882 0.0028
                      }
                    }
                  }
                }
                JOINT RightFinger3
                {
                  OFFSET -0.6113 -8.7231 -2.0637
                  CHANNELS 6 Xposition Yposition Zposition Zrotation Xrotation Yrotation
                  JOINT RightFinger31
                  {
                    OFFSET 0.1927 -3.8059 -0.2383
                    CHANNELS 6 Xposition Yposition Zposition Zrotation Xrotation Yrotation
                    JOINT RightFinger32
                    {
                      OFFSET 0.1091 -2.1688 -0.1362
                      CHANNELS 6 Xposition Yposition Zposition Zrotation Xrotation Yrotation
                      End Site
                      {
                        OFFSET 0.2358 -1.9176 -0.0906
                      }
                    }
                  }
                }
                JOINT RightFinger4
                {
                  OFFSET 0.6151 -8.0947 -3.564
                  CHANNELS 6 Xposition Yposition Zposition Zrotation Xrotation Yrotation
                  JOINT RightFinger41
                  {
                    OFFSET 0.4882 -2.341 -0.6462
                    CHANNELS 6 Xposition Yposition Zposition Zrotation Xrotation Yrotation
                    JOINT RightFinger42
                    {
                      OFFSET 0.3574 -1.7166 -0.4742
                      CHANNELS 6 Xposition Yposition Zposition Zrotation Xrotation Yrotation
                      End Site
                      {
                        OFFSET 0.4187 -1.5237 -0.3496
                      }
                    }
                  }
                }
                JOINT RightFinger0
                {
                  OFFSET 1.4199 -1.8761 1.4221
                  CHANNELS 6 Xposition Yposition Zposition Zrotation Xrotation Yrotation
                  JOINT RightFinger01
                  {
                    OFFSET 1.1472 -3.4929 2.6336
                    CHANNELS 6 Xposition Yposition Zposition Zrotation Xrotation Yrotation
                    JOINT RightFinger02
                    {
                      OFFSET 0.8229 -2.3 1.6571
                      CHANNELS 6 Xposition Yposition Zposition Zrotation Xrotation Yrotation
                      End Site
                      {
                        OFFSET 0.5822 -1.6914 1.1582
                      }
                    }
                  }
                }
              }
            }
          }
        }
      }
    }
  }
  JOINT RightHip
  {
    OFFSET -9.412 3.9771 -0.7758
    CHANNELS 6 Xposition Yposition Zposition Zrotation Xrotation Yrotation
    JOINT RightKnee
    {
      OFFSET -0.7531 -40.938 0
      CHANNELS 6 Xposition Yposition Zposition Zrotation Xrotation Yrotation
      JOINT RightAnkle
      {
        OFFSET 0 -40.1986 0
        CHANNELS 6 Xposition Yposition Zposition Zrotation Xrotation Yrotation
        JOINT RightToe
        {
          OFFSET 0 -4.4182 9.239
          CHANNELS 6 Xposition Yposition Zposition Zrotation Xrotation Yrotation
          End Site
          {
            OFFSET 0 0 6.1981
          }
        }
      }
    }
  }
  JOINT LeftHip
  {
    OFFSET 9.4119 3.9773 -0.7758
    CHANNELS 6 Xposition Yposition Zposition Zrotation Xrotation Yrotation
    JOINT LeftKnee
    {
      OFFSET 0.7532 -40.9383 0
      CHANNELS 6 Xposition Yposition Zposition Zrotation Xrotation Yrotation
      JOINT LeftAnkle
      {
        OFFSET 0 -40.1986 0
        CHANNELS 6 Xposition Yposition Zposition Zrotation Xrotation Yrotation
        JOINT LeftToe
        {
          OFFSET 0 -4.4182 9.239
          CHANNELS 6 Xposition Yposition Zposition Zrotation Xrotation Yrotation
          End Site
          {
            OFFSET 0 0 6.1981
          }
        }
      }
    }
  }
}
MOTION
Frames:	4
Frame Time:	0.0333333
5.72205e-005 65.662 3.42586 0 0 -0 0 8.7983 -4.7612 0 0 -0 0 8.0291 0.4195 0 0 -0 0 9.9351 -2.2114 0 0 -0 0 22.3885 -0.4656 0 0 -0 -0.0001 12.643 3.4389 0 0 -0 2.2603 21.606 7.4023 0 0 -12.5014 13.5163 -1.1332 -5.0146 88.1196 14.2451 10.6914 -0.0995 -28.05 -0.2431 -0.00160068 -0.00239207 0.000740045 0.0679 -23.3996 -0.1402 -8.4365e-005 7.00714e-005 -9.52055e-007 0.7932 -9.069 2.5189 9.93923e-017 -1.98785e-016 -1.59028e-015 -0.8272 -3.3923 0.5977 9.93923e-017 -5.96354e-016 -1.59028e-015 -0.5649 -2.3158 0.4082 -9.93923e-017 -5.96354e-016 -1.59028e-015 0.9159 -9.2044 0.2193 9.93923e-017 -1.98785e-016 -1.59028e-015 0.0117 -4.1944 -0.0248 -0.0128176 0.00232552 8.52707e-005 0.0071 -2.3249 -0.0142 9.93923e-017 5.96354e-016 -0 0.6113 -8.7231 -2.0637 9.93923e-017 -1.98785e-016 -1.59028e-015 -0.1927 -3.8059 -0.2383 -0.0160551 0.00299681 0.000857156 -0.1091 -2.1688 -0.1362 -2.48481e-016 0 3.18055e-015 -0.6151 -8.0947 -3.5641 9.93923e-017 -1.98785e-016 -1.59028e-015 -0.4882 -2.341 -0.6462 -0.0125865 0.0031206 0.00282719 -0.3575 -1.7167 -0.4742 0 1.98785e-016 -0 -1.42 -1.8761 1.4223 9.93923e-017 -1.98785e-016 -1.59028e-015 -1.1471 -3.4929 2.6334 9.93923e-017 -5.96354e-016 -1.59028e-015 -0.823 -2.3 1.6571 -9.93923e-017 -5.96354e-016 -1.59028e-015 -2.2603 21.606 7.4023 -0.865644 0.16582 7.03859 -13.5187 -1.1334 -5.0155 -88.0329 10.2057 -10.5567 0.0994 -28.0499 -0.2431 0.0015593 -0.00248883 -0.000788628 -0.0679 -23.3996 -0.1402 7.87605e-005 4.10553e-005 1.24965e-005 -0.7932 -9.0691 2.5189 -3.97569e-016 -7.95139e-016 3.18055e-015 0.8272 -3.3923 0.5977 -1.98785e-016 -3.97569e-016 3.18055e-015 0.565 -2.3158 0.4082 -1.98785e-016 0 3.18055e-015 -0.916 -9.2044 0.2193 -3.97569e-016 -7.95139e-016 3.18055e-015 -0.0117 -4.1944 -0.0248 0.0129473 0.00231697 -8.70038e-005 -0.0071 -2.3249 -0.0142 9.93923e-017 -7.95139e-016 1.59028e-015 -0.6113 -8.7231 -2.0637 -3.97569e-016 -7.95139e-016 3.18055e-015 0.1927 -3.8059 -0.2383 0.0163314 0.00303369 -0.000872333 0.1091 -2.1688 -0.1362 3.97569e-016 7.95139e-016 -3.18055e-015 0.6151 -8.0947 -3.564 -3.97569e-016 -7.95139e-016 3.18055e-015 0.4882 -2.341 -0.6462 0.0145763 0.00367772 -0.00326275 0.3574 -1.7166 -0.4742 9.93923e-017 -3.97569e-016 -0 1.4199 -1.8761 1.4221 -3.97569e-016 -7.95139e-016 3.18055e-015 1.1472 -3.4929 2.6336 -1.98785e-016 -3.97569e-016 3.18055e-015 0.8229 -2.3 1.6571 -1.98785e-016 0 3.18055e-015 -9.412 3.9771 -0.7758 3.42482 1.32465 -0.0626183 -0.7531 -40.938 0 0.000117508 0.717283 0.000978199 0 -40.1986 0 -3.4257 -2.04197 -0.0604716 8.88178e-016 -4.4182 9.239 6.47761e-025 0 -0 9.4119 3.9773 -0.7758 -3.42483 1.34017 0.0627307 0.7532 -40.9383 -2.22045e-016 -0.000193936 0.682302 -0.0013703 -8.88179e-016 -40.1986 0 3.42574 -2.02253 0.0595886 -8.88178e-016 -4.4182 9.239 -8.45714e-024 0 -7.40531e-025 
-3.38757e-005 76.5334 -29.9517 1.79054e-008 -69.0033 7.26175e-008 0 8.7983 -4.7612 -0.369266 16.9383 -0.03097 5.55112e-017 8.0291 0.4195 -0.783879 33.8766 0.0629269 -2.22045e-016 9.9351 -2.2114 -0.783873 33.8763 0.0629242 -4.44089e-016 22.3885 -0.4656 3.52847e-005 -0.790198 8.44317e-006 -0.0001 12.643 3.4389 1.44533e-007 -0.715171 4.10504e-007 2.2603 21.606 7.4023 -8.00263 -0.196049 -12.5029 13.5163 -1.1332 -5.0146 90.3227 11.0264 -37.3604 -0.0995 -28.05 -0.2431 -1.44698 -7.86986 -0.354742 0.0679 -23.3996 -0.1402 -6.88345 1.25934 -0.138003 0.7932 -9.069 2.5189 2.78299e-015 -3.37934e-015 1.27222e-014 -0.8272 -3.3923 0.5977 1.2877e-005 1.20741e-005 -3.34974e-006 -0.5649 -2.3158 0.4082 -7.0663e-006 -1.93659e-005 1.05803e-005 0.9159 -9.2044 0.2193 2.78299e-015 -3.37934e-015 1.27222e-014 0.0117 -4.1944 -0.0248 -0.0127467 0.00231733 8.20539e-005 0.0071 -2.3249 -0.0142 1.55287e-005 4.00153e-006 1.15973e-005 0.6113 -8.7231 -2.0637 2.78299e-015 -3.37934e-015 1.27222e-014 -0.1927 -3.8059 -0.2383 -0.0160696 0.00299585 0.000857438 -0.1091 -2.1688 -0.1362 6.15473e-006 -3.75339e-007 6.21736e-006 -0.6151 -8.0947 -3.5641 2.78299e-015 -3.37934e-015 1.27222e-014 -0.4882 -2.341 -0.6462 -0.012595 0.00313123 0.00284131 -0.3575 -1.7167 -0.4742 6.61617e-006 1.2554e-007 7.02134e-006 -1.42 -1.8761 1.4223 2.78299e-015 -3.37934e-015 1.27222e-014 -1.1471 -3.4929 2.6334 1.2877e-005 1.20741e-005 -3.34974e-006 -0.823 -2.3 1.6571 -7.0663e-006 -1.93659e-005 1.05803e-005 -2.2603 21.606 7.4023 7.13355 -0.0304162 7.0337 -13.5187 -1.1334 -5.0155 -91.0292 5.97062 37.3182 0.0994 -28.0499 -0.2431 1.42039 -7.87377 0.24651 -0.0679 -23.3996 -0.1402 6.87367 1.25161 0.312726 -0.7932 -9.0691 2.5189 7.95139e-016 -1.98785e-015 3.18055e-015 0.8272 -3.3923 0.5977 -3.41305e-006 -1.15413e-006 8.24456e-006 0.565 -2.3158 0.4082 4.41391e-031 3.97569e-015 -6.36111e-015 -0.916 -9.2044 0.2193 7.95139e-016 -1.98785e-015 3.18055e-015 -0.0117 -4.1944 -0.0248 0.0130049 0.00232178 -7.81715e-005 -0.0071 -2.3249 -0.0142 -1.76556e-031 3.18055e-015 3.18055e-015 -0.6113 -8.7231 -2.0637 7.95139e-016 -1.98785e-015 3.18055e-015 0.1927 -3.8059 -0.2383 0.0163674 0.00303517 -0.000861279 0.1091 -2.1688 -0.1362 -7.95139e-016 -2.38542e-015 3.18055e-015 0.6151 -8.0947 -3.564 7.95139e-016 -1.98785e-015 3.18055e-015 0.4882 -2.341 -0.6462 0.0145017 0.00366224 -0.00324101 0.3574 -1.7166 -0.4742 2.78299e-015 3.18055e-015 -6.36111e-015 1.4199 -1.8761 1.4221 7.95139e-016 -1.98785e-015 3.18055e-015 1.1472 -3.4929 2.6336 -3.41305e-006 -1.15413e-006 8.24456e-006 0.8229 -2.3 1.6571 4.41391e-031 3.97569e-015 -6.36111e-015 -9.412 3.9771 -0.7758 -119.323 -49.343 -125.74 -0.7531 -40.938 0 -116.201 73.8952 115.204 0 -40.1986 0 -3.72953 26.0191 -0.733714 0 -4.4182 9.239 -7.83315e-006 -1.82453e-006 -5.73684e-007 9.4119 3.9773 -0.7758 119.324 -49.3488 125.74 0.7532 -40.9383 3.55271e-015 116.2 73.8953 -115.208 -7.10543e-015 -40.1986 1.42109e-014 3.72778 26.0185 0.730526 -7.10543e-015 -4.4182 9.239 -7.84575e-007 -7.89586e-007 -3.74054e-006 
0.00710156 76.5358 -29.9537 -8.54119e-008 -69.0033 -4.76159e-008 0 8.7983 -4.7612 -0.370397 16.8615 -0.0291961 0 8.0291 0.4195 -0.786406 33.723 0.0663842 -2.22045e-016 9.9351 -2.2114 -0.7864 33.7228 0.0663819 0 22.3885 -0.4656 3.43347e-005 -1.57507 7.80313e-006 -0.0001 12.643 3.4389 -4.10586e-007 -1.42894 -6.4588e-009 2.2603 21.606 7.4023 -8.14875 -0.176267 -12.3904 13.5163 -1.1332 -5.0146 90.3227 11.0265 -37.3604 -0.0995 -28.05 -0.2431 -1.44691 -7.86984 -0.354746 0.0679 -23.3996 -0.1402 -6.78823 1.32831 -0.510173 0.7932 -9.069 2.5189 -1.42752e-006 -2.41806e-006 9.11556e-006 -0.8272 -3.3923 0.5977 2.39992e-006 -2.72686e-007 3.21353e-006 -0.5649 -2.3158 0.4082 1.98785e-015 3.18055e-015 6.36111e-015 0.9159 -9.2044 0.2193 -1.42752e-006 -2.41806e-006 9.11556e-006 0.0117 -4.1944 -0.0248 -0.0128299 0.00233395 8.77223e-005 0.0071 -2.3249 -0.0142 1.98785e-015 3.18055e-015 3.18055e-015 0.6113 -8.7231 -2.0637 -1.42752e-006 -2.41806e-006 9.11556e-006 -0.1927 -3.8059 -0.2383 -0.0160781 0.0029989 0.000875335 -0.1091 -2.1688 -0.1362 -3.18055e-015 5.36719e-015 -6.36111e-015 -0.6151 -8.0947 -3.5641 -1.42752e-006 -2.41806e-006 9.11556e-006 -0.4882 -2.341 -0.6462 -0.0125007 0.00310035 0.00280928 -0.3575 -1.7167 -0.4742 1.1338e-006 4.70444e-006 2.61909e-006 -1.42 -1.8761 1.4223 -1.42752e-006 -2.41806e-006 9.11556e-006 -1.1471 -3.4929 2.6334 2.39992e-006 -2.72686e-007 3.21353e-006 -0.823 -2.3 1.6571 1.98785e-015 3.18055e-015 6.36111e-015 -2.2603 21.606 7.4023 7.29537 -0.00935117 6.93364 -13.5187 -1.1334 -5.0155 -91.0292 5.97063 37.3182 0.0994 -28.0499 -0.2431 1.42036 -7.87374 0.246518 -0.0679 -23.3996 -0.1402 6.68535 1.31698 0.681485 -0.7932 -9.0691 2.5189 6.34823e-007 -4.48818e-006 4.72053e-006 0.8272 -3.3923 0.5977 -2.84956e-006 2.10146e-006 -6.33934e-006 0.565 -2.3158 0.4082 -1.59028e-015 -1.59028e-015 6.36111e-015 -0.916 -9.2044 0.2193 6.34823e-007 -4.48818e-006 4.72053e-006 -0.0117 -4.1944 -0.0248 0.0129335 0.00231658 -8.48937e-005 -0.0071 -2.3249 -0.0142 5.56597e-015 2.78299e-015 -6.36111e-015 -0.6113 -8.7231 -2.0637 6.34823e-007 -4.48818e-006 4.72053e-006 0.1927 -3.8059 -0.2383 0.0163324 0.00303116 -0.000868538 0.1091 -2.1688 -0.1362 2.026e-006 -2.13445e-006 6.48087e-006 0.6151 -8.0947 -3.564 6.34823e-007 -4.48818e-006 4.72053e-006 0.4882 -2.341 -0.6462 0.0145739 0.00367171 -0.00326456 0.3574 -1.7166 -0.4742 -1.19271e-015 1.98785e-015 -0 1.4199 -1.8761 1.4221 6.34823e-007 -4.48818e-006 4.72053e-006 1.1472 -3.4929 2.6336 -2.84956e-006 2.10146e-006 -6.33934e-006 0.8229 -2.3 1.6571 -1.59028e-015 -1.59028e-015 6.36111e-015 -9.412 3.9771 -0.7758 -119.752 -49.6411 -126.219 -0.7531 -40.938 0 -117.504 73.6705 116.442 -1.06581e-014 -40.1986 0 -3.57974 25.7706 -1.18041 7.10543e-015 -4.4182 9.239 -3.18055e-015 0 -3.18055e-015 9.4119 3.9773 -0.7758 119.458 -49.5453 125.878 0.7532 -40.9383 7.10543e-015 116.192 73.8964 -115.197 0 -40.1986 0 3.62666 25.9079 0.969794 0 -4.4182 9.239 6.56909e-006 1.73145e-005 -8.00568e-006 
0.0141911 76.5381 -29.9556 -5.84515e-008 -69.0033 -4.52441e-008 1.73472e-018 8.7983 -4.7612 -0.371497 16.7847 -0.0274195 0 8.0291 0.4195 -0.788861 33.5693 0.0698286 0 9.9351 -2.2114 -0.788856 33.5691 0.0698265 -4.44089e-016 22.3885 -0.4656 3.44893e-005 -2.36039 7.428e-006 -0.0001 12.643 3.4389 -7.57627e-008 -2.14302 7.10797e-007 2.2603 21.606 7.4023 -8.29492 -0.1568 -12.2778 13.5163 -1.1332 -5.0146 90.3227 11.0264 -37.3604 -0.0995 -28.05 -0.2431 -1.44697 -7.86983 -0.354747 0.0679 -23.3996 -0.1402 -6.69251 1.39672 -0.882569 0.7932 -9.069 2.5189 9.93923e-016 3.18055e-015 -0 -0.8272 -3.3923 0.5977 1.3347e-005 1.3074e-005 -6.39965e-006 -0.5649 -2.3158 0.4082 -1.32417e-030 3.97569e-015 1.90833e-014 0.9159 -9.2044 0.2193 9.93923e-016 3.18055e-015 -0 0.0117 -4.1944 -0.0248 -0.012851 0.00232813 7.93807e-005 0.0071 -2.3249 -0.0142 2.78299e-015 3.97569e-016 3.18055e-015 0.6113 -8.7231 -2.0637 9.93923e-016 3.18055e-015 -0 -0.1927 -3.8059 -0.2383 -0.0161028 0.0030061 0.000856719 -0.1091 -2.1688 -0.1362 3.97569e-016 6.75868e-015 1.27222e-014 -0.6151 -8.0947 -3.5641 9.93923e-016 3.18055e-015 -0 -0.4882 -2.341 -0.6462 -0.0125718 0.00310474 0.002829 -0.3575 -1.7167 -0.4742 1.14707e-005 1.92565e-005 -1.92897e-006 -1.42 -1.8761 1.4223 9.93923e-016 3.18055e-015 -0 -1.1471 -3.4929 2.6334 1.3347e-005 1.3074e-005 -6.39965e-006 -0.823 -2.3 1.6571 -1.32417e-030 3.97569e-015 1.90833e-014 -2.2603 21.606 7.4023 7.45722 0.011407 6.83351 -13.5187 -1.1334 -5.0155 -91.0292 5.97063 37.3182 0.0994 -28.0499 -0.2431 1.42037 -7.87376 0.246533 -0.0679 -23.3996 -0.1402 6.49657 1.38118 1.05053 -0.7932 -9.0691 2.5189 6.57816e-006 -7.15017e-006 -1.13459e-006 0.8272 -3.3923 0.5977 -1.64454e-006 -6.31594e-006 2.83649e-007 0.565 -2.3158 0.4082 3.9757e-016 6.96775e-006 -6.36111e-015 -0.916 -9.2044 0.2193 6.57816e-006 -7.15017e-006 -1.13459e-006 -0.0117 -4.1944 -0.0248 0.0130081 0.00232522 -9.42839e-005 -0.0071 -2.3249 -0.0142 -2.4753e-007 -2.46357e-006 2.04317e-006 -0.6113 -8.7231 -2.0637 6.57816e-006 -7.15017e-006 -1.13459e-006 0.1927 -3.8059 -0.2383 0.0163663 0.00303113 -0.000872555 0.1091 -2.1688 -0.1362 -1.39674e-006 -6.4764e-007 -1.75965e-006 0.6151 -8.0947 -3.564 6.57816e-006 -7.15017e-006 -1.13459e-006 0.4882 -2.341 -0.6462 0.0146502 0.0036891 -0.00328348 0.3574 -1.7166 -0.4742 -2.4667e-006 -2.31958e-006 4.25283e-007 1.4199 -1.8761 1.4221 6.57816e-006 -7.15017e-006 -1.13459e-006 1.1472 -3.4929 2.6336 -1.64454e-006 -6.31594e-006 2.83649e-007 0.8229 -2.3 1.6571 3.9757e-016 6.96775e-006 -6.36111e-015 -9.412 3.9771 -0.7758 -120.187 -49.937 -126.705 -0.7531 -40.938 3.55271e-015 -118.773 73.438 117.645 3.55271e-015 -40.1986 1.42109e-014 -3.43241 25.5207 -1.62553 0 -4.4182 9.239 1.7633e-006 1.24596e-005 2.88173e-006 9.4119 3.9773 -0.7758 119.593 -49.7417 126.017 0.7532 -40.9383 7.10543e-015 116.183 73.8976 -115.185 7.10543e-015 -40.1986 -1.42109e-014 3.52613 25.7972 1.20859 -3.55271e-015 -4.4182 9.239 0 0 -4.77083e-015 
